<svg width="665" height="490" viewBox="0 0 665 490" fill="none" xmlns="http://www.w3.org/2000/svg">
<rect width="167" height="163" fill="#75FFBD"/>
<rect width="167" height="163" fill="#75D6FF"/>
<rect y="162" width="195" height="165" fill="#75FFBD"/>
<rect y="162" width="195" height="165" fill="#AA75FF"/>
<rect y="327" width="167" height="163" fill="#75FFBD"/>
<rect y="327" width="167" height="163" fill="#FFD875"/>
<rect x="166" width="166" height="163" fill="#75FFBD"/>
<rect x="166" width="166" height="163" fill="#75D6FF"/>
<rect x="195" y="162" width="195" height="165" fill="#75FFBD"/>
<rect x="195" y="162" width="195" height="165" fill="#AA75FF"/>
<rect x="166" y="327" width="166" height="163" fill="#75FFBD"/>
<rect x="166" y="327" width="166" height="163" fill="#FFD875"/>
<rect x="333" width="166" height="163" fill="#75FFBD"/>
<rect x="333" width="166" height="163" fill="#75FFFF"/>
<rect x="390" y="162" width="138" height="165" fill="#75FFBD"/>
<rect x="390" y="162" width="138" height="165" fill="#FF7BF2"/>
<rect x="333" y="327" width="166" height="163" fill="#75FFBD"/>
<rect x="333" y="327" width="166" height="163" fill="#FFC46A"/>
<rect x="498" width="167" height="163" fill="#75FFBD"/>
<rect x="498" width="167" height="163" fill="#75FFFF"/>
<rect x="528" y="162" width="137" height="165" fill="#75FFBD"/>
<rect x="528" y="162" width="137" height="165" fill="#FF7BF2"/>
<rect x="498" y="327" width="167" height="163" fill="#75FFBD"/>
<rect x="498" y="327" width="167" height="163" fill="#FF8E5D"/>
</svg>
