<svg width="524" height="524" viewBox="0 0 524 524" fill="none" xmlns="http://www.w3.org/2000/svg">
<path d="M524 262C524 196.495 499.462 133.365 455.222 85.0559C410.982 36.7464 350.251 6.76143 284.998 1.01135C219.746 -4.73872 154.706 14.1633 102.7 53.9915C50.6936 93.8198 15.4934 151.685 4.03761 216.181C-7.41815 280.677 5.7017 347.124 40.8111 402.426C75.9205 457.728 130.472 497.872 193.714 514.945C256.955 532.018 324.298 524.781 382.468 494.662C440.638 464.542 485.416 413.725 507.974 352.226L262 262H524Z" fill="#FF8E5D"/>
<path d="M524 262C524 213.376 510.469 165.712 484.921 124.34C459.373 82.9689 422.816 49.5233 379.342 27.7461C335.867 5.96897 287.19 -3.28046 238.758 1.03292C190.326 5.34629 144.05 23.0523 105.108 52.1695C66.166 81.2867 36.0951 120.666 18.2604 165.901C0.425643 211.136 -4.46923 260.442 4.12352 308.3C12.7163 356.159 34.4576 400.682 66.9145 436.888C99.3714 473.093 141.263 499.552 187.902 513.304L262 262H524Z" fill="#FFC46A"/>
<path d="M524 262C524 224.558 515.975 187.551 500.466 153.473C484.956 119.394 462.323 89.0359 434.091 64.4429C405.858 39.8499 372.683 21.5936 336.799 10.9043C300.916 0.214901 263.158 -2.65929 226.07 2.47534C188.982 7.60998 153.426 20.6342 121.796 40.6704C90.1662 60.7066 63.1984 87.2894 42.7094 118.628C22.2205 149.966 8.6863 185.332 3.01886 222.342C-2.64858 259.352 -0.31765 297.147 9.8546 333.181L262 262H524Z" fill="#FF7BF2"/>
<path d="M524 262C524 210.181 508.634 159.526 479.845 116.441C451.056 73.3549 410.137 39.7737 362.263 19.9436C314.389 0.113402 261.709 -5.07507 210.886 5.03426C160.063 15.1436 113.379 40.0967 76.738 76.738L262 262H524Z" fill="#AA75FF"/>
<path d="M524 262C524 219.293 513.56 177.233 493.589 139.483C473.618 101.732 444.722 69.4365 409.416 45.407C374.11 21.3774 333.466 6.34282 291.021 1.61225C248.577 -3.11832 205.619 2.59857 165.889 18.2651L262 262H524Z" fill="#75FFFF"/>
<path d="M507.11 354.547C522.085 314.888 527.212 272.187 522.052 230.11C516.892 188.034 501.6 147.837 477.486 112.971C453.373 78.1051 421.16 49.6108 383.611 29.9339C346.063 10.257 304.3 -0.014833 261.908 1.60732e-05L262 262L507.11 354.547Z" fill="#75D6FF"/>
</svg>
